<svg xmlns="http://www.w3.org/2000/svg" width="36" height="36" viewBox="0 0 36 36">
    <g transform="translate(-.4)">
        <circle cx="18" cy="18" r="18" transform="translate(.4)" style="fill:#f2f2f2"/>
        <path data-name="Fill 1" d="M9.626 14H4.374A4.378 4.378 0 0 1 0 9.626V4.374A4.378 4.378 0 0 1 4.374 0h2.917a4.379 4.379 0 0 1 4.374 4.374.874.874 0 0 0 .873.874h.583a.88.88 0 0 1 .879.878v3.5A4.378 4.378 0 0 1 9.626 14zM4.368 8.747a.874.874 0 0 0 0 1.748h5.253a.874.874 0 0 0 0-1.748zm.006-5.252a.874.874 0 0 0 0 1.747h3.5a.874.874 0 0 0 0-1.747z" transform="translate(11.4 11)" style="fill:#37332e"/>
    </g>
</svg>
