<svg xmlns="http://www.w3.org/2000/svg" width="120" height="120" viewBox="0 0 120 120">
  <g id="그룹_116779" data-name="그룹 116779" transform="translate(-13.197 19.722)">
    <g id="타원_6303" data-name="타원 6303" transform="translate(13.197 -19.722)" fill="#f5f5f5" stroke="#e4e4e4" stroke-width="1">
      <circle cx="60" cy="60" r="60" stroke="none"/>
      <circle cx="60" cy="60" r="59.5" fill="none"/>
    </g>
    <g id="_아이콘" data-name="+ 아이콘" transform="translate(37.182 4)">
      <path id="area" d="M0,1H72V73H0Z" transform="translate(0.016 -0.722)" fill="red" opacity="0"/>
      <g id="_아이콘-2" data-name="+ 아이콘" transform="translate(10.016 14.762)">
        <line id="선_73" data-name="선 73" y2="15" transform="translate(26.5 27.5)" fill="none" stroke="#1e1c19" stroke-linecap="round" stroke-miterlimit="10" stroke-width="3"/>
        <path id="패스_61385" data-name="패스 61385" d="M17.885,10.385s0,0,0,0h0a3.5,3.5,0,0,1-7,0s0,0,0,0a3.5,3.5,0,0,1,7,0Z" transform="translate(12.048 7.115)" fill="none" stroke="#1e1c19" stroke-linecap="round" stroke-miterlimit="10" stroke-width="3"/>
        <path id="패스_61386" data-name="패스 61386" d="M9.1,1.131A21.118,21.118,0,0,0,.6,18.6,21.218,21.218,0,0,0,9.116,36.116" transform="translate(-0.6 -0.6)" fill="none" stroke="#3617ce" stroke-linecap="round" stroke-miterlimit="10" stroke-width="3"/>
        <path id="패스_61387" data-name="패스 61387" d="M12.527,26.434A13.679,13.679,0,0,1,5.612,14.777c0-4.756,2.652-8.81,6.915-11.358" transform="translate(4.972 2.081)" fill="none" stroke="#1e1c19" stroke-linecap="round" stroke-miterlimit="10" stroke-width="3"/>
        <path id="패스_61388" data-name="패스 61388" d="M17.225,2.776a14.135,14.135,0,0,1,6.736,12c0,4.756-2.554,8.468-6.783,11.017" transform="translate(18.321 2.724)" fill="none" stroke="#1e1c19" stroke-linecap="round" stroke-miterlimit="10" stroke-width="3"/>
        <path id="패스_61389" data-name="패스 61389" d="M21.028,36.116A21.194,21.194,0,0,0,29.513,18.6a21.146,21.146,0,0,0-8.5-17.483" transform="translate(23.487 -0.6)" fill="none" stroke="#3617ce" stroke-linecap="round" stroke-miterlimit="10" stroke-width="3"/>
      </g>
    </g>
  </g>
</svg>
