<svg xmlns="http://www.w3.org/2000/svg" width="120" height="120" viewBox="0 0 120 120">
  <g id="그룹_116780" data-name="그룹 116780" transform="translate(-13.014 19)">
    <g id="타원_6304" data-name="타원 6304" transform="translate(13.014 -19)" fill="#f5f5f5" stroke="#e4e4e4" stroke-width="1">
      <circle cx="60" cy="60" r="60" stroke="none"/>
      <circle cx="60" cy="60" r="59.5" fill="none"/>
    </g>
    <g id="_아이콘" data-name="+ 아이콘" transform="translate(37.014 10)">
      <rect id="area" width="72" height="72" transform="translate(0 -5)" fill="red" opacity="0"/>
      <g id="_아이콘-2" data-name="+ 아이콘" transform="translate(8.415 10)">
        <g id="Stroke_3" data-name="Stroke 3" transform="translate(0.585 0)" fill="none" stroke-miterlimit="10">
          <path d="M46.64,35H6.36A6.306,6.306,0,0,1,0,28.748V6.252A6.306,6.306,0,0,1,6.36,0H46.64A6.306,6.306,0,0,1,53,6.252v22.5A6.306,6.306,0,0,1,46.64,35Z" stroke="none"/>
          <path d="M 46.63957214355469 35 C 50.15322875976562 35 53 32.20088577270508 53 28.74764251708984 L 53 6.252357006072998 C 53 2.799114227294922 50.15322875976562 0 46.63957214355469 0 L 6.360414505004883 0 C 2.846771478652954 0 0 2.799114227294922 0 6.252357006072998 L 0 28.74764251708984 C 0 32.20088577270508 2.846771478652954 35 6.360414505004883 35 L 46.63957214355469 35 M 46.63957214355469 38 L 6.360414505004883 38 C 1.199071407318115 38 -3 33.84941482543945 -3 28.74764251708984 L -3 6.252357006072998 C -3 1.150585770606995 1.199071407318115 -3 6.360414505004883 -3 L 46.63957214355469 -3 C 51.80093002319336 -3 56 1.150585770606995 56 6.252357006072998 L 56 28.74764251708984 C 56 33.84941482543945 51.80093002319336 38 46.63957214355469 38 Z" stroke="none" fill="#000"/>
        </g>
        <path id="Stroke_5" data-name="Stroke 5" d="M0,10,7,4.976,0,0Z" transform="translate(25.585 12.394)" fill="none" stroke="#3617ce" stroke-linejoin="round" stroke-miterlimit="10" stroke-width="3"/>
        <g id="그룹_116671" data-name="그룹 116671" transform="translate(13.085 44.493)">
          <path id="Stroke_1" data-name="Stroke 1" d="M18,.5H0" transform="translate(10.623 -0.5)" fill="none" stroke="#000" stroke-linecap="round" stroke-miterlimit="10" stroke-width="3"/>
          <path id="Stroke_1-2" data-name="Stroke 1" d="M5,.5H0" transform="translate(0 -0.5)" fill="none" stroke="#3617ce" stroke-linecap="round" stroke-miterlimit="10" stroke-width="3"/>
        </g>
      </g>
    </g>
  </g>
</svg>
