<svg xmlns="http://www.w3.org/2000/svg" width="120" height="120" viewBox="0 0 120 120">
  <g id="그룹_116781" data-name="그룹 116781" transform="translate(-14.855 19)">
    <g id="타원_6305" data-name="타원 6305" transform="translate(14.855 -19)" fill="#f5f5f5" stroke="#e4e4e4" stroke-width="1">
      <circle cx="60" cy="60" r="60" stroke="none"/>
      <circle cx="60" cy="60" r="59.5" fill="none"/>
    </g>
    <g id="_아이콘" data-name="+ 아이콘" transform="translate(48.27 20)">
      <path id="Stroke_3" data-name="Stroke 3" d="M46.64,35A6.306,6.306,0,0,0,53,28.748V6.252A6.306,6.306,0,0,0,46.64,0H6.36A6.306,6.306,0,0,0,0,6.252v22.5A6.306,6.306,0,0,0,6.36,35H46.64m0,3H6.36A9.317,9.317,0,0,1-3,28.748V6.252A9.317,9.317,0,0,1,6.36-3H46.64A9.317,9.317,0,0,1,56,6.252v22.5A9.317,9.317,0,0,1,46.64,38Z" transform="translate(0.585 0)"/>
      <g id="그룹_116671" data-name="그룹 116671" transform="translate(13.085 44.493)">
        <path id="Stroke_1" data-name="Stroke 1" d="M18,2H0A1.5,1.5,0,0,1-1.5.5,1.5,1.5,0,0,1,0-1H18a1.5,1.5,0,0,1,0,3Z" transform="translate(10.623 -0.5)"/>
        <path id="Stroke_1-2" data-name="Stroke 1" d="M5,2H0A1.5,1.5,0,0,1-1.5.5,1.5,1.5,0,0,1,0-1H5A1.5,1.5,0,0,1,5,2Z" transform="translate(0 -0.5)" fill="#3617ce"/>
      </g>
      <path id="패스_64218" data-name="패스 64218" d="M8.586,12.836A5.1,5.1,0,0,1,7.7,15.98,2.843,2.843,0,0,1,5.3,17.156,2.437,2.437,0,0,1,3.391,16.3V20.25H.758V8.547H3.219l.078.781a2.437,2.437,0,0,1,1.992-.937,2.866,2.866,0,0,1,2.43,1.152,5.16,5.16,0,0,1,.867,3.168Zm-2.633-.164q0-2.25-1.312-2.25a1.239,1.239,0,0,0-1.25.672v3.328a1.279,1.279,0,0,0,1.266.7q1.258,0,1.3-2.172Zm3.061.023a4.989,4.989,0,0,1,.492-2.254,3.52,3.52,0,0,1,1.414-1.52,4.259,4.259,0,0,1,2.164-.531,3.887,3.887,0,0,1,2.992,1.176,4.512,4.512,0,0,1,1.094,3.2v.094A4.378,4.378,0,0,1,16.073,16a3.9,3.9,0,0,1-2.973,1.16,3.942,3.942,0,0,1-2.9-1.082,4.232,4.232,0,0,1-1.18-2.934Zm2.633.164a3.145,3.145,0,0,0,.367,1.719,1.223,1.223,0,0,0,1.086.547q1.406,0,1.438-2.164V12.7q0-2.273-1.453-2.273-1.32,0-1.43,1.961Zm14.131-.023a5.1,5.1,0,0,1-.887,3.145A2.843,2.843,0,0,1,22.5,17.156a2.437,2.437,0,0,1-1.914-.852V20.25H17.95V8.547h2.461l.078.781a2.437,2.437,0,0,1,1.992-.937,2.866,2.866,0,0,1,2.43,1.152,5.16,5.16,0,0,1,.867,3.168Zm-2.633-.164q0-2.25-1.312-2.25a1.239,1.239,0,0,0-1.25.672v3.328a1.279,1.279,0,0,0,1.266.7q1.258,0,1.3-2.172Z" transform="translate(14.585 6)" fill="#3617ce"/>
    </g>
  </g>
</svg>
