<svg xmlns="http://www.w3.org/2000/svg" width="120" height="120" viewBox="0 0 120 120">
  <g id="그룹_116782" data-name="그룹 116782" transform="translate(-12.695 19)">
    <g id="패스_64223" data-name="패스 64223" transform="translate(12.695 -19)" fill="#f5f5f5">
      <path d="M 60 119.5 C 51.96733856201172 119.5 44.17520141601562 117.9269104003906 36.8400764465332 114.8244018554688 C 33.31455230712891 113.3332290649414 29.91416931152344 111.4875564575195 26.73333930969238 109.3386306762695 C 23.58259963989258 107.2100296020508 20.61977005004883 104.7654800415039 17.92715454101562 102.0728607177734 C 15.23452281951904 99.38023376464844 12.7899694442749 96.41739654541016 10.66136932373047 93.26667785644531 C 8.512446403503418 90.08584594726562 6.666769027709961 86.68544769287109 5.175600051879883 83.15993499755859 C 2.073092222213745 75.82479858398438 0.5 68.03267669677734 0.5 60 C 0.5 51.96733856201172 2.073092222213745 44.17520141601562 5.175600051879883 36.8400764465332 C 6.666769027709961 33.31455230712891 8.512446403503418 29.91416931152344 10.66136932373047 26.73333930969238 C 12.7899694442749 23.58259963989258 15.23452281951904 20.61977005004883 17.92715454101562 17.92715454101562 C 20.61977005004883 15.23452281951904 23.58259963989258 12.7899694442749 26.73333930969238 10.66136932373047 C 29.91416931152344 8.512446403503418 33.31455230712891 6.666769027709961 36.8400764465332 5.175600051879883 C 44.17520141601562 2.073092222213745 51.96733856201172 0.5 60 0.5 C 68.03267669677734 0.5 75.82479858398438 2.073092222213745 83.15993499755859 5.175600051879883 C 86.68544769287109 6.666769027709961 90.08584594726562 8.512446403503418 93.26667785644531 10.66136932373047 C 96.41739654541016 12.7899694442749 99.38023376464844 15.23452281951904 102.0728607177734 17.92715454101562 C 104.7654800415039 20.61977005004883 107.2100296020508 23.58259963989258 109.3386306762695 26.73333930969238 C 111.4875564575195 29.91416931152344 113.3332290649414 33.31455230712891 114.8244018554688 36.8400764465332 C 117.9269104003906 44.17520141601562 119.5 51.96733856201172 119.5 60 C 119.5 68.03267669677734 117.9269104003906 75.82479858398438 114.8244018554688 83.15993499755859 C 113.3332290649414 86.68544769287109 111.4875564575195 90.08584594726562 109.3386306762695 93.26667785644531 C 107.2100296020508 96.41739654541016 104.7654800415039 99.38023376464844 102.0728607177734 102.0728607177734 C 99.38023376464844 104.7654800415039 96.41739654541016 107.2100296020508 93.26667785644531 109.3386306762695 C 90.08584594726562 111.4875564575195 86.68544769287109 113.3332290649414 83.15993499755859 114.8244018554688 C 75.82479858398438 117.9269104003906 68.03267669677734 119.5 60 119.5 Z" stroke="none"/>
      <path d="M 60 1 C 52.03461456298828 1 44.30801391601562 2.559814453125 37.03485107421875 5.636100769042969 C 33.53907012939453 7.11468505859375 30.16732025146484 8.944831848144531 27.01323699951172 11.07568359375 C 23.88887023925781 13.18647003173828 20.95081329345703 15.61058044433594 18.28070068359375 18.28070068359375 C 15.61058044433594 20.95081329345703 13.18647003173828 23.88887023925781 11.07568359375 27.01323699951172 C 8.944831848144531 30.16732025146484 7.11468505859375 33.53907012939453 5.636100769042969 37.03485107421875 C 2.559814453125 44.30801391601562 1 52.03461456298828 1 60 C 1 67.96537780761719 2.559814453125 75.69198608398438 5.636100769042969 82.96514892578125 C 7.11468505859375 86.4609375 8.944831848144531 89.83268737792969 11.07568359375 92.98677062988281 C 13.18647003173828 96.11112976074219 15.61058044433594 99.04917907714844 18.28070068359375 101.7192993164062 C 20.95081329345703 104.3894195556641 23.88887023925781 106.8135375976562 27.01323699951172 108.92431640625 C 30.16732025146484 111.0551681518555 33.53907012939453 112.8853149414062 37.03485107421875 114.363899230957 C 44.30801391601562 117.440185546875 52.03461456298828 119 60 119 C 67.96537780761719 119 75.69198608398438 117.440185546875 82.96514892578125 114.363899230957 C 86.4609375 112.8853149414062 89.83268737792969 111.0551681518555 92.98677062988281 108.92431640625 C 96.11112976074219 106.8135375976562 99.04917907714844 104.3894195556641 101.7192993164062 101.7192993164062 C 104.3894195556641 99.04917907714844 106.8135375976562 96.11112976074219 108.92431640625 92.98677062988281 C 111.0551681518555 89.83268737792969 112.8853149414062 86.4609375 114.363899230957 82.96514892578125 C 117.440185546875 75.69198608398438 119 67.96537780761719 119 60 C 119 52.03461456298828 117.440185546875 44.30801391601562 114.363899230957 37.03485107421875 C 112.8853149414062 33.53907012939453 111.0551681518555 30.16732025146484 108.92431640625 27.01323699951172 C 106.8135375976562 23.88887023925781 104.3894195556641 20.95081329345703 101.7192993164062 18.28070068359375 C 99.04917907714844 15.61058044433594 96.11112976074219 13.18647003173828 92.98677062988281 11.07568359375 C 89.83268737792969 8.944831848144531 86.4609375 7.11468505859375 82.96514892578125 5.636100769042969 C 75.69198608398438 2.559814453125 67.96537780761719 1 60 1 M 60 0 C 93.1370849609375 0 120 26.8629150390625 120 60 C 120 93.1370849609375 93.1370849609375 120 60 120 C 26.8629150390625 120 0 93.1370849609375 0 60 C 0 26.8629150390625 26.8629150390625 0 60 0 Z" stroke="none" fill="#e4e4e4"/>
    </g>
    <g id="_아이콘" data-name="+ 아이콘" transform="translate(45.109 20)">
      <path id="Stroke_3" data-name="Stroke 3" d="M46.64,35A6.306,6.306,0,0,0,53,28.748V6.252A6.306,6.306,0,0,0,46.64,0H6.36A6.306,6.306,0,0,0,0,6.252v22.5A6.306,6.306,0,0,0,6.36,35H46.64m0,3H6.36A9.317,9.317,0,0,1-3,28.748V6.252A9.317,9.317,0,0,1,6.36-3H46.64A9.317,9.317,0,0,1,56,6.252v22.5A9.317,9.317,0,0,1,46.64,38Z" transform="translate(0.585 0)"/>
      <g id="그룹_116671" data-name="그룹 116671" transform="translate(13.085 44.493)">
        <path id="Stroke_1" data-name="Stroke 1" d="M18,2H0A1.5,1.5,0,0,1-1.5.5,1.5,1.5,0,0,1,0-1H18a1.5,1.5,0,0,1,0,3Z" transform="translate(10.623 -0.5)"/>
        <path id="Stroke_1-2" data-name="Stroke 1" d="M5,2H0A1.5,1.5,0,0,1-1.5.5,1.5,1.5,0,0,1,0-1H5A1.5,1.5,0,0,1,5,2Z" transform="translate(0 -0.5)" fill="#3617ce"/>
      </g>
      <path id="패스_64217" data-name="패스 64217" d="M4.313,15.125a1.171,1.171,0,0,0,.859-.3,1.1,1.1,0,0,0,.3-.84H7.938a2.922,2.922,0,0,1-1,2.281,3.705,3.705,0,0,1-2.566.891A3.751,3.751,0,0,1,1.469,16,4.556,4.556,0,0,1,.406,12.8v-.109a5.149,5.149,0,0,1,.473-2.262A3.441,3.441,0,0,1,2.242,8.918a4.065,4.065,0,0,1,2.109-.527A3.658,3.658,0,0,1,6.969,9.3a3.242,3.242,0,0,1,.969,2.477H5.469a1.445,1.445,0,0,0-.32-1.008,1.106,1.106,0,0,0-.859-.352q-1.023,0-1.2,1.3a9.206,9.206,0,0,0-.055,1.141,3.616,3.616,0,0,0,.3,1.766A1.055,1.055,0,0,0,4.313,15.125ZM13.413,17a2.973,2.973,0,0,1-.25-.758,2.448,2.448,0,0,1-2.031.914A3,3,0,0,1,9.1,16.434a2.3,2.3,0,0,1-.836-1.816A2.364,2.364,0,0,1,9.28,12.539a5.174,5.174,0,0,1,2.953-.7h.813v-.448q0-1.17-1.008-1.17a.824.824,0,0,0-.937.926H8.467A2.36,2.36,0,0,1,9.51,9.155a4.383,4.383,0,0,1,2.66-.765,3.843,3.843,0,0,1,2.555.789,2.743,2.743,0,0,1,.961,2.164v3.742a3.832,3.832,0,0,0,.359,1.781V17Zm-1.648-1.719a1.469,1.469,0,0,0,.816-.211,1.322,1.322,0,0,0,.465-.477V13.242H12.28q-1.375,0-1.375,1.234a.754.754,0,0,0,.242.582A.876.876,0,0,0,11.764,15.281Zm12.827-2.437a5.152,5.152,0,0,1-.859,3.2,2.878,2.878,0,0,1-2.422,1.117,2.5,2.5,0,0,1-2.078-1.023L19.122,17H16.763V5H19.4V9.227a2.41,2.41,0,0,1,1.9-.836,2.879,2.879,0,0,1,2.438,1.133,5.179,5.179,0,0,1,.859,3.188Zm-2.641-.168a3.437,3.437,0,0,0-.324-1.735,1.093,1.093,0,0,0-1-.519A1.261,1.261,0,0,0,19.4,11.1v3.354a1.268,1.268,0,0,0,1.25.671,1.118,1.118,0,0,0,1.18-.9A6.5,6.5,0,0,0,21.95,12.676ZM28.128,17H25.488V5h2.641Zm5.311.156A4.345,4.345,0,0,1,30.291,16a4.006,4.006,0,0,1-1.2-3.02v-.219a5.191,5.191,0,0,1,.48-2.289,3.516,3.516,0,0,1,1.4-1.535,4.233,4.233,0,0,1,2.188-.543A3.659,3.659,0,0,1,35.97,9.5,4.344,4.344,0,0,1,37,12.578V13.6H31.767a1.9,1.9,0,0,0,.617,1.117,1.836,1.836,0,0,0,1.234.406,2.366,2.366,0,0,0,1.953-.875l1.2,1.422a3.363,3.363,0,0,1-1.395,1.082A4.713,4.713,0,0,1,33.439,17.156Zm-.3-6.734q-1.156,0-1.375,1.531h2.656v-.2a1.3,1.3,0,0,0-.32-.98A1.275,1.275,0,0,0,33.142,10.422Z" transform="translate(8.585 8)" fill="#3617ce"/>
    </g>
  </g>
</svg>
