<svg xmlns="http://www.w3.org/2000/svg" width="36" height="36" viewBox="0 0 36 36">
    <path d="M18 0A18 18 0 1 1 0 18 18 18 0 0 1 18 0z" style="fill:#f2f2f2"/>
    <path data-name="Fill 1" d="M7 14c-1.888 0-2.137-.008-2.886-.042a5.17 5.17 0 0 1-1.7-.325 3.429 3.429 0 0 1-1.24-.808 3.423 3.423 0 0 1-.808-1.24 5.18 5.18 0 0 1-.325-1.7C.008 9.137 0 8.888 0 7s.008-2.137.042-2.886a5.186 5.186 0 0 1 .325-1.7 3.429 3.429 0 0 1 .808-1.24 3.429 3.429 0 0 1 1.24-.807 5.186 5.186 0 0 1 1.7-.325C4.863.008 5.112 0 7 0s2.137.008 2.886.042a5.18 5.18 0 0 1 1.7.325 3.423 3.423 0 0 1 1.24.808 3.429 3.429 0 0 1 .808 1.24 5.17 5.17 0 0 1 .325 1.7c.034.749.042 1 .042 2.886s-.008 2.137-.042 2.886a5.163 5.163 0 0 1-.325 1.7 3.582 3.582 0 0 1-2.048 2.048 5.163 5.163 0 0 1-1.7.325c-.749.032-.998.04-2.886.04zM7 1.261c-1.875 0-2.1.007-2.829.041a3.877 3.877 0 0 0-1.3.241 2.179 2.179 0 0 0-.805.524 2.179 2.179 0 0 0-.524.805 3.877 3.877 0 0 0-.241 1.3c-.033.728-.04.953-.04 2.828s.007 2.1.041 2.829a3.867 3.867 0 0 0 .241 1.3 2.179 2.179 0 0 0 .524.805 2.179 2.179 0 0 0 .805.524 3.877 3.877 0 0 0 1.3.241c.734.034.954.041 2.829.041s2.1-.007 2.829-.041a3.867 3.867 0 0 0 1.3-.241 2.316 2.316 0 0 0 1.329-1.329 3.867 3.867 0 0 0 .241-1.3c.034-.734.041-.954.041-2.829s-.007-2.1-.041-2.829a3.877 3.877 0 0 0-.241-1.3 2.172 2.172 0 0 0-.524-.805 2.179 2.179 0 0 0-.805-.524 3.867 3.867 0 0 0-1.3-.241c-.73-.033-.955-.04-2.83-.04zm0 9.334A3.595 3.595 0 1 1 10.595 7 3.6 3.6 0 0 1 7 10.595zm0-5.929A2.334 2.334 0 1 0 9.334 7 2.336 2.336 0 0 0 7 4.666zm3.737-.566a.84.84 0 1 1 .84-.84.841.841 0 0 1-.84.84z" transform="translate(11 11)" style="fill:#37332e"/>
</svg>
