<svg xmlns="http://www.w3.org/2000/svg" width="36" height="36" viewBox="0 0 36 36">
    <g transform="translate(.325)">
        <circle cx="18" cy="18" r="18" transform="translate(-.325)" style="fill:#f2f2f2"/>
        <path data-name="합치기 25" d="M3.169 15.525c-.092-.054-.077-.2-.076-.2.012-.083.168-.671.841-3l.016-.056A6.444 6.444 0 0 1 0 6.644C0 2.981 3.78 0 8.427 0s8.427 2.981 8.427 6.644a5.99 5.99 0 0 1-2.468 4.7 9.628 9.628 0 0 1-5.959 1.946 10.712 10.712 0 0 1-1.5-.1c-.772.543-3.312 2.318-3.561 2.353a.279.279 0 0 1-.093.016.207.207 0 0 1-.104-.034zM2.046 5.135a.477.477 0 0 0 .477.477h.758V8.5a.487.487 0 0 0 .972 0V5.612h.758a.476.476 0 1 0 0-.953H2.523a.477.477 0 0 0-.477.476zm9.406.011v3.325a.487.487 0 1 0 .973 0v-1.06l.169-.169 1.14 1.511a.487.487 0 0 0 .387.193.486.486 0 0 0 .29-.1.481.481 0 0 0 .189-.321.491.491 0 0 0-.093-.36l-1.2-1.585 1.108-1.108a.378.378 0 0 0 .108-.3.493.493 0 0 0-.478-.452.377.377 0 0 0-.269.108L12.424 6.19V5.146a.486.486 0 1 0-.972 0zM7.386 8.112l.241.63a.4.4 0 0 0 .4.215.738.738 0 0 0 .309-.067c.134-.062.262-.231.115-.692L7.293 5.14a.734.734 0 0 0-.648-.481.733.733 0 0 0-.645.48L4.834 8.2c-.148.458-.019.628.115.69a.734.734 0 0 0 .309.067.4.4 0 0 0 .4-.215l.241-.63h1.487zm1.385-2.966v3.3a.457.457 0 0 0 .466.446H10.8a.446.446 0 1 0 0-.892H9.764V5.146a.5.5 0 0 0-.993 0zM6.158 7.251l.486-1.379.486 1.379z" transform="translate(9.675 11)" style="fill:#37332e;stroke:transparent;stroke-miterlimit:10"/>
    </g>
</svg>
