<svg xmlns="http://www.w3.org/2000/svg" width="36" height="36" viewBox="0 0 36 36">
    <g transform="translate(-.15)">
        <circle cx="18" cy="18" r="18" transform="translate(.15)" style="fill:#f2f2f2"/>
        <path data-name="Fill 1" d="M8 11a47.9 47.9 0 0 1-6.26-.337A1.985 1.985 0 0 1 .329 9.278 20.4 20.4 0 0 1 0 5.5a20.49 20.49 0 0 1 .329-3.779A2.032 2.032 0 0 1 1.74.323 49.753 49.753 0 0 1 8 0a47.878 47.878 0 0 1 6.26.336 1.99 1.99 0 0 1 1.41 1.385A19.462 19.462 0 0 1 16 5.513a20.49 20.49 0 0 1-.329 3.779 1.99 1.99 0 0 1-1.41 1.385A49.754 49.754 0 0 1 8 11zM6.405 3.145v4.71L10.57 5.5z" transform="translate(10.15 13)" style="fill:#37332e"/>
    </g>
</svg>
